<svg width="11" height="10" viewBox="0 0 11 10" fill="none" xmlns="http://www.w3.org/2000/svg">
<g clip-path="url(#clip0)">
<path d="M6.38825 7.7775L10.8383 3.32738C10.9413 3.22445 10.998 3.08705 10.998 2.94055C10.998 2.79405 10.9413 2.65665 10.8383 2.55373L10.5107 2.226C10.2972 2.01275 9.95017 2.01275 9.737 2.226L6.00012 5.96288L2.25909 2.22186C2.15609 2.11893 2.01877 2.0621 1.87235 2.0621C1.72576 2.0621 1.58845 2.11893 1.48536 2.22186L1.1578 2.54958C1.05479 2.65259 0.998047 2.7899 0.998047 2.93641C0.998047 3.08291 1.05479 3.22031 1.1578 3.32323L5.61191 7.7775C5.71524 7.88067 5.85321 7.93734 5.99988 7.93701C6.14711 7.93734 6.285 7.88067 6.38825 7.7775Z" fill="white"/>
</g>
<defs>
<clipPath id="clip0">
<rect width="10" height="10" fill="white" transform="translate(10.998) rotate(90)"/>
</clipPath>
</defs>
</svg>
