<svg width="20" height="20" viewBox="0 0 20 20" fill="none" xmlns="http://www.w3.org/2000/svg">
<path d="M0 12.5L0 2.5C0 1.80969 0.559616 1.25 1.25 1.25H5L5 13.75H1.25C0.559616 13.75 0 13.1904 0 12.5Z" fill="#38393B"/>
<path d="M17.6917 12.5002L13.999 12.5002C13.6762 12.5002 13.5144 12.7157 13.4601 12.8085C13.4058 12.9006 13.2959 13.1466 13.4522 13.4286L14.754 15.7729C15.0397 16.2863 15.069 16.8899 14.8352 17.4288C14.6014 17.9684 14.14 18.3596 13.5693 18.5018L12.6514 18.7313C12.428 18.7875 12.1912 18.7161 12.0355 18.5433L7.05139 13.0062C6.53442 12.4307 6.25 11.6885 6.25 10.9158L6.25 4.37525C6.25 2.65222 7.65198 1.25025 9.375 1.25025L15.5927 1.25086C16.9965 1.25086 18.2361 2.19629 18.6066 3.54945L19.9408 9.6725C19.9799 9.84278 20 10.0173 20 10.1919C20 11.4645 18.9642 12.5003 17.6916 12.5003L17.6917 12.5002Z" fill="#38393B"/>
</svg>
