<svg width="25" height="26" viewBox="0 0 25 26" fill="none" xmlns="http://www.w3.org/2000/svg">
<path d="M18.3594 1.96484C17.0028 1.96484 15.759 2.39473 14.6627 3.24258C13.6117 4.05542 12.912 5.09072 12.5 5.84355C12.088 5.09067 11.3883 4.05542 10.3373 3.24258C9.24097 2.39473 7.99722 1.96484 6.64062 1.96484C2.85488 1.96484 0 5.06138 0 9.16768C0 13.6039 3.56167 16.6391 8.95356 21.234C9.86919 22.0143 10.907 22.8988 11.9857 23.8421C12.1279 23.9666 12.3105 24.0352 12.5 24.0352C12.6895 24.0352 12.8721 23.9666 13.0143 23.8421C14.0931 22.8987 15.1309 22.0143 16.047 21.2335C21.4383 16.6391 25 13.6039 25 9.16768C25 5.06138 22.1451 1.96484 18.3594 1.96484Z" fill="#FE0000"/>
</svg>
