<svg width="25" height="26" viewBox="0 0 25 26" fill="none" xmlns="http://www.w3.org/2000/svg">
<path d="M11.6227 6.32357L12.5 7.92675L13.3772 6.3236C13.7515 5.63966 14.3712 4.73225 15.2745 4.03361C16.1997 3.31807 17.2293 2.96484 18.3594 2.96484C21.5179 2.96484 24 5.5356 24 9.16768C24 11.0782 23.2468 12.7276 21.7753 14.5032C20.2785 16.3094 18.1171 18.1555 15.3984 20.4724L15.3984 20.4724L15.3972 20.4734C14.5224 21.2189 13.5321 22.0629 12.5 22.9635C11.4686 22.0635 10.4786 21.2198 9.60468 20.475L9.6022 20.4729L9.60218 20.4729C6.88316 18.1558 4.72167 16.3095 3.22478 14.5032C1.75323 12.7276 1 11.0782 1 9.16768C1 5.5356 3.48213 2.96484 6.64062 2.96484C7.77068 2.96484 8.80028 3.31807 9.72548 4.03361C10.6288 4.73225 11.2485 5.63962 11.6227 6.32357Z" stroke="#38393B" stroke-width="2"/>
</svg>
 