<svg width="20" height="20" viewBox="0 0 20 20" fill="none" xmlns="http://www.w3.org/2000/svg">
<path d="M0 7.5V17.5C0 18.1903 0.559616 18.75 1.25 18.75H5V6.25H1.25C0.559616 6.25 0 6.80962 0 7.5Z" fill="#38393B"/>
<path d="M17.6917 7.49973H13.999C13.6762 7.49973 13.5144 7.28428 13.4601 7.1915C13.4058 7.09934 13.2959 6.85337 13.4522 6.57139L14.754 4.22702C15.0397 3.71372 15.069 3.11008 14.8352 2.57113C14.6014 2.03158 14.14 1.64035 13.5693 1.49814L12.6514 1.26865C12.428 1.21249 12.1912 1.2839 12.0355 1.45663L7.05139 6.99375C6.53442 7.56931 6.25 8.3115 6.25 9.0842V15.6247C6.25 17.3477 7.65198 18.7497 9.375 18.7497L15.5927 18.7491C16.9965 18.7491 18.2361 17.8037 18.6066 16.4505L19.9408 10.3275C19.9799 10.1572 20 9.98262 20 9.80806C20 8.53548 18.9642 7.49971 17.6916 7.49971L17.6917 7.49973Z" fill="#38393B"/>
</svg>
